<svg xmlns="http://www.w3.org/2000/svg" viewBox="0 0 96.858 78.438">
  <g id="hosting-icon" transform="translate(-279.542 -436.916)">
    <g id="Group_905" data-name="Group 905" transform="translate(304.532 465.155)">
      <g id="Group_896" data-name="Group 896">
        <path id="Path_1611" data-name="Path 1611" class="cls-1" d="M343.252,476.051H299.119a1.372,1.372,0,0,1-1.373-1.373V458.86a1.372,1.372,0,0,1,1.373-1.373h44.133a1.373,1.373,0,0,1,1.373,1.373v15.818A1.372,1.372,0,0,1,343.252,476.051Zm-42.76-2.745h41.387V460.232H300.492Z" transform="translate(-297.746 -457.487)"/>
      </g>
      <g id="Group_897" data-name="Group 897" transform="translate(0 15.818)">
        <path id="Path_1612" data-name="Path 1612" class="cls-1" d="M343.252,487.572H299.119a1.372,1.372,0,0,1-1.373-1.373V470.383a1.371,1.371,0,0,1,1.373-1.373h44.133a1.372,1.372,0,0,1,1.373,1.373V486.2A1.372,1.372,0,0,1,343.252,487.572Zm-42.76-2.745h41.387V471.756H300.492Z" transform="translate(-297.746 -469.01)"/>
      </g>
      <g id="Group_898" data-name="Group 898" transform="translate(0 31.635)">
        <path id="Path_1613" data-name="Path 1613" class="cls-1" d="M343.252,499.1H299.119a1.372,1.372,0,0,1-1.373-1.373V481.9a1.371,1.371,0,0,1,1.373-1.373h44.133a1.372,1.372,0,0,1,1.373,1.373v15.818A1.373,1.373,0,0,1,343.252,499.1Zm-42.76-2.745h41.387V483.278H300.492Z" transform="translate(-297.746 -480.532)"/>
      </g>
      <g id="Group_899" data-name="Group 899" transform="translate(5.16 4.704)">
        <path id="Path_1614" data-name="Path 1614" class="cls-1" d="M306.082,470.068a4.577,4.577,0,1,1,4.578-4.577A4.583,4.583,0,0,1,306.082,470.068Zm0-6.408a1.831,1.831,0,1,0,1.833,1.831A1.834,1.834,0,0,0,306.082,463.659Z" transform="translate(-301.505 -460.914)"/>
      </g>
      <g id="Group_900" data-name="Group 900" transform="translate(5.16 20.523)">
        <path id="Path_1615" data-name="Path 1615" class="cls-1" d="M306.082,481.591a4.577,4.577,0,1,1,4.578-4.577A4.583,4.583,0,0,1,306.082,481.591Zm0-6.408a1.831,1.831,0,1,0,1.833,1.831A1.833,1.833,0,0,0,306.082,475.183Z" transform="translate(-301.505 -472.437)"/>
      </g>
      <g id="Group_901" data-name="Group 901" transform="translate(5.16 36.34)">
        <path id="Path_1616" data-name="Path 1616" class="cls-1" d="M306.082,493.114a4.577,4.577,0,1,1,4.578-4.578A4.583,4.583,0,0,1,306.082,493.114Zm0-6.409a1.832,1.832,0,1,0,1.833,1.831A1.834,1.834,0,0,0,306.082,486.7Z" transform="translate(-301.505 -483.959)"/>
      </g>
      <g id="Group_902" data-name="Group 902" transform="translate(28.083 7.908)">
        <path id="Path_1617" data-name="Path 1617" class="cls-1" d="M329.667,465.994H319.576a1.373,1.373,0,0,1,0-2.746h10.091a1.373,1.373,0,1,1,0,2.746Z" transform="translate(-318.203 -463.248)"/>
      </g>
      <g id="Group_903" data-name="Group 903" transform="translate(28.083 23.727)">
        <path id="Path_1618" data-name="Path 1618" class="cls-1" d="M329.667,477.516H319.576a1.373,1.373,0,1,1,0-2.745h10.091a1.373,1.373,0,1,1,0,2.745Z" transform="translate(-318.203 -474.771)"/>
      </g>
      <g id="Group_904" data-name="Group 904" transform="translate(28.083 39.544)">
        <path id="Path_1619" data-name="Path 1619" class="cls-1" d="M329.667,489.039H319.576a1.373,1.373,0,1,1,0-2.745h10.091a1.373,1.373,0,1,1,0,2.745Z" transform="translate(-318.203 -486.293)"/>
      </g>
    </g>
    <g id="Group_906" data-name="Group 906" transform="translate(279.542 436.916)">
      <path id="Path_1620" data-name="Path 1620" class="cls-1" d="M358.645,491.627h-.885a1.373,1.373,0,1,1,0-2.745h.885a15.01,15.01,0,1,0-2.655-29.77,1.372,1.372,0,0,1-1.612-1.271,19.292,19.292,0,0,0-37.452-5.311,1.37,1.37,0,0,1-1.919.763,15.442,15.442,0,0,0-7.11-1.723,15.69,15.69,0,0,0-15.562,14.376,1.371,1.371,0,0,1-1.115,1.24,10.941,10.941,0,0,0,2.012,21.7h4.375a1.373,1.373,0,1,1,0,2.745h-4.375a13.686,13.686,0,0,1-3.527-26.912,18.461,18.461,0,0,1,18.19-15.891,18.091,18.091,0,0,1,6.991,1.391,22.036,22.036,0,0,1,42.093,5.987q.844-.084,1.662-.085a17.755,17.755,0,1,1,0,35.511Z" transform="translate(-279.542 -436.916)"/>
    </g>
  </g>
</svg>
