<svg xmlns="http://www.w3.org/2000/svg" viewBox="0 0 260.02 196.087">
  <g id="pie-icon" transform="translate(0 0.037)" opacity="0.09">
    <g id="Group_1184" data-name="Group 1184" transform="translate(0 83.387)">
      <path id="Path_1741" data-name="Path 1741" d="M107.764,133.062C48.575,133.062,0,100,0,59.995V20.4H8.164V59.995c0,35.513,44.9,64.9,99.6,64.9s99.6-29.39,99.6-64.9V20.4h8.164V59.995C215.527,100,167.36,133.062,107.764,133.062Z" transform="translate(0 -20.4)" fill="#087482"/>
    </g>
    <g id="Group_1185" data-name="Group 1185" transform="translate(0 9.912)">
      <path id="Path_1742" data-name="Path 1742" d="M107.764,148.942C48.575,148.942,0,116.287,0,75.875S48.575,2.4,107.764,2.4a146.15,146.15,0,0,1,55.515,10.613,4.316,4.316,0,0,1,2.449,2.857,3.915,3.915,0,0,1-.816,3.674L117.152,71.793h94.293a3.857,3.857,0,0,1,4.082,4.082C215.527,116.287,167.36,148.942,107.764,148.942Zm0-138.378c-54.7,0-99.6,29.39-99.6,65.311s44.9,64.9,99.6,64.9c53.065,0,96.334-26.941,99.6-60.821h-99.6a3.57,3.57,0,0,1-3.674-2.449,3.726,3.726,0,0,1,.816-4.49l49.8-54.7A147,147,0,0,0,107.764,10.564Z" transform="translate(0 -2.4)" fill="#087482"/>
    </g>
    <g id="Group_1186" data-name="Group 1186" transform="translate(148.175 -0.037)">
      <path id="Path_1743" data-name="Path 1743" d="M144.064,107.063H99.57V98.9h40.411V63.386c0-21.634-17.144-42.452-44.493-54.29L44.464,65.019V82.979H36.3V63.386a4.409,4.409,0,0,1,1.225-2.857L91.406,1.34A4.606,4.606,0,0,1,95.9.116c32.247,13.062,52.249,37.146,52.249,63.27v39.595A3.856,3.856,0,0,1,144.064,107.063Z" transform="translate(-36.3 0.037)" fill="#087482"/>
    </g>
    <g id="Group_1187" data-name="Group 1187" transform="translate(152.257 59.304)">
      <rect id="Rectangle_341" data-name="Rectangle 341" width="103.682" height="8.164" fill="#087482"/>
    </g>
  </g>
</svg>
