<svg xmlns="http://www.w3.org/2000/svg" viewBox="0 0 73.836 73.836">  
  <g id="tecnology-icon" transform="translate(-391.981 -495.021)">
    <g id="Group_889" data-name="Group 889" transform="translate(408.86 527.895)">
      <path id="Path_1604" data-name="Path 1604" class="cls-1" d="M404.378,542.607a1.1,1.1,0,0,0,1.1-1.1l.073-1.839h3.165a1.1,1.1,0,0,0,1.091-.938,18.188,18.188,0,0,1,1.042-3.875,1.1,1.1,0,0,0-.478-1.355l-2.771-1.684,1.866-3.083,2.747,1.584a1.105,1.105,0,0,0,1.413-.264,18.162,18.162,0,0,1,2.836-2.836,1.109,1.109,0,0,0,.266-1.414l-1.558-2.847,3.158-1.737,1.584,2.742a1.1,1.1,0,0,0,1.357.476,18.227,18.227,0,0,1,3.871-1.041,1.1,1.1,0,0,0,.939-1.091l.073-3.238,3.605.074V522.3a1.1,1.1,0,0,0,.939,1.091,18.2,18.2,0,0,1,3.871,1.041,1.1,1.1,0,0,0,1.357-.476l1.684-2.771,3.085,1.866-1.584,2.747a1.1,1.1,0,0,0,.264,1.414,18.294,18.294,0,0,1,2.836,2.836,1.1,1.1,0,0,0,1.413.264l2.847-1.56,1.739,3.159-2.743,1.584a1.1,1.1,0,0,0-.475,1.357,18.4,18.4,0,0,1,1.039,3.874,1.1,1.1,0,0,0,1.091.938l3.238.073-.073,3.6h-3.165a1.1,1.1,0,0,0-1.091.941,18.385,18.385,0,0,1-1.039,3.869,1.1,1.1,0,0,0,.475,1.357l2.742,1.584a.073.073,0,0,1,.027.1,1.1,1.1,0,0,0,.405,1.508,1.1,1.1,0,0,0,1.507-.405,2.284,2.284,0,0,0-.835-3.115l-1.941-1.12a20.365,20.365,0,0,0,.674-2.51h2.241a2.284,2.284,0,0,0,2.281-2.282v-3.531a2.283,2.283,0,0,0-2.281-2.281h-2.241a20.408,20.408,0,0,0-.674-2.513l1.941-1.12a2.282,2.282,0,0,0,.835-3.115l-1.766-3.059a2.283,2.283,0,0,0-3.115-.833l-1.945,1.121a20.562,20.562,0,0,0-1.836-1.836l1.123-1.945a2.281,2.281,0,0,0-.835-3.115l-3.058-1.766a2.282,2.282,0,0,0-3.115.835l-1.123,1.941a20.8,20.8,0,0,0-2.51-.675v-2.238a2.283,2.283,0,0,0-2.281-2.281h-3.533a2.282,2.282,0,0,0-2.279,2.281v2.238a21,21,0,0,0-2.513.675l-1.12-1.941a2.285,2.285,0,0,0-3.117-.835l-3.056,1.766a2.282,2.282,0,0,0-.836,3.115l1.123,1.945a20.988,20.988,0,0,0-1.838,1.836l-1.942-1.121a2.285,2.285,0,0,0-3.118.833l-1.766,3.059a2.28,2.28,0,0,0,.836,3.115l1.941,1.12a21.211,21.211,0,0,0-.675,2.513h-2.24a2.282,2.282,0,0,0-2.279,2.281V541.5A1.1,1.1,0,0,0,404.378,542.607Z" transform="translate(-403.275 -516.856)"/>
    </g>
    <g id="Group_890" data-name="Group 890" transform="translate(419.784 538.82)">
      <path id="Path_1605" data-name="Path 1605" class="cls-1" d="M424.2,524.056a13.737,13.737,0,0,0-13.724,13.722,1.1,1.1,0,0,0,2.208,0,11.514,11.514,0,1,1,23.028,0,1.1,1.1,0,0,0,2.208,0A13.737,13.737,0,0,0,424.2,524.056Z" transform="translate(-410.474 -524.056)"/>
    </g>
    <g id="Group_891" data-name="Group 891" transform="translate(457.22 501.417)">
      <path id="Path_1606" data-name="Path 1606" class="cls-1" d="M436.248,501.6a1.111,1.111,0,0,0,.781-.323,1.138,1.138,0,0,0,.323-.78,1.1,1.1,0,0,0-.323-.78,1.124,1.124,0,0,0-1.56,0,1.1,1.1,0,0,0-.325.78,1.106,1.106,0,0,0,1.1,1.1Z" transform="translate(-435.145 -499.407)"/>
    </g>
    <g id="Group_892" data-name="Group 892" transform="translate(451.216 501.407)">
      <path id="Path_1607" data-name="Path 1607" class="cls-1" d="M432.293,501.608a1.1,1.1,0,1,0,0-2.208,1.1,1.1,0,1,0,0,2.208Z" transform="translate(-431.188 -499.4)"/>
    </g>
    <g id="Group_893" data-name="Group 893" transform="translate(445.199 501.42)">
      <path id="Path_1608" data-name="Path 1608" class="cls-1" d="M428.326,501.6a1.165,1.165,0,0,0,.8-.323,1.189,1.189,0,0,0,.31-.78,1.1,1.1,0,0,0-1.885-.78,1.1,1.1,0,0,0-.323.78,1.138,1.138,0,0,0,.323.78A1.167,1.167,0,0,0,428.326,501.6Z" transform="translate(-427.223 -499.409)"/>
    </g>
    <g id="Group_894" data-name="Group 894" transform="translate(392.481 495.521)">
      <path id="Path_1609" data-name="Path 1609" class="cls-1" d="M464.214,495.521H402.8a1.1,1.1,0,0,0-1.1,1.1v60h-8.111a1.1,1.1,0,0,0-1.1,1.1,10.641,10.641,0,0,0,10.628,10.629h51.58a10.641,10.641,0,0,0,10.628-10.629v-61.1A1.1,1.1,0,0,0,464.214,495.521Zm-61.1,70.627a8.433,8.433,0,0,1-8.349-7.318h49.357a10.622,10.622,0,0,0,4.094,7.318Zm60-8.42a8.421,8.421,0,0,1-16.842,0,1.1,1.1,0,0,0-1.1-1.1H403.9V509.5h59.207Zm0-50.436H403.9v-9.564h59.207Z" transform="translate(-392.481 -495.521)"/>
    </g>
    <g id="Group_895" data-name="Group 895" transform="translate(408.86 514.65)">
      <path id="Path_1610" data-name="Path 1610" class="cls-1" d="M404.378,529.04a1.1,1.1,0,0,0,1.1-1.1v-17.6h13.611v7.3a1.1,1.1,0,0,0,2.206,0v-7.3h13.244v7.3a1.1,1.1,0,0,0,2.208,0v-7.3h13.61v17.6a1.1,1.1,0,0,0,2.208,0V509.23a1.1,1.1,0,0,0-1.1-1.1H404.378a1.1,1.1,0,0,0-1.1,1.1v18.707A1.1,1.1,0,0,0,404.378,529.04Z" transform="translate(-403.275 -508.127)"/>
    </g>
  </g>
</svg>
