<svg xmlns="http://www.w3.org/2000/svg" viewBox="0 0 77.299 77.302">
  <path id="ux-icon" class="cls-1" d="M227.822,197.072,204.816,169.3l18.937-18.94a1.163,1.163,0,0,0,.3-.5l5.073-18a1.157,1.157,0,0,0-1.427-1.427l-18.015,5.089a1.162,1.162,0,0,0-.5.3l-17.556,17.561-4.73-5.709c-.407-3.419-2.225-6.785-5.476-10.037-8.618-8.615-26.567-7.193-27.331-7.125a1.154,1.154,0,0,0-1.053,1.052c-.065.761-1.489,18.713,7.128,27.331,3.264,3.265,6.645,5.108,10.079,5.512l5.668,4.7-14.877,14.88-.683-.68a1.155,1.155,0,1,0-1.632,1.635l.682.682-4.948,4.95a5.221,5.221,0,0,0,0,7.393l7.169,7.155a5.246,5.246,0,0,0,7.4-.006l4.943-4.943.61.61a1.154,1.154,0,1,0,1.63-1.635l-.607-.609L191.83,182.3l27.765,23a5.843,5.843,0,0,0,8.228-8.226Zm-1.484-63.853-3.983,14.13-10.149-10.136Zm-46.558,6.052c3.135,3.132,4.5,6.043,4.819,8.642l-6.516,6.516c-11.556-5.054-19.465-17.327-21.994-21.7C160.78,132.6,173.42,132.907,179.781,139.271Zm-17.988,17.987c-5.509-5.509-6.473-15.743-6.554-21.428,3.364,5.425,10.676,15.438,21.106,20.338l-5.908,5.909C167.544,161.718,164.649,160.116,161.792,157.258Zm10.709,6.02,13.3-13.3,4.179,5.043-12.433,12.437ZM210,138.271l4.837,4.83L167.5,190.443l-4.834-4.829Zm-42.607,65.205a2.933,2.933,0,0,1-4.136,0l-7.169-7.157a2.912,2.912,0,0,1,0-4.125l4.95-4.95,11.3,11.283Zm6.573-6.577-4.83-4.826,47.336-47.341,4.827,4.821Zm51.858,6.4a3.517,3.517,0,0,1-4.753.222l-27.6-22.865,9.705-9.708,22.867,27.6A3.521,3.521,0,0,1,225.82,203.3Z" transform="translate(-152.376 -129.849)"/>
</svg>
