<svg xmlns="http://www.w3.org/2000/svg" xmlns:xlink="http://www.w3.org/1999/xlink">

    <symbol id="search" viewBox="0 0 22 22">
        <path d="M22,20.26l-6.5-6.49a8.65,8.65,0,1,0-1.73,1.73L20.26,22ZM.82,8.62a7.8,7.8,0,1,1,7.8,7.79A7.81,7.81,0,0,1,.82,8.62Zm0,0"/>
    </symbol>

    <symbol id="chev-down" viewBox="0 0 11 6">
        <path d="M0,1.26,1.42,0,5.5,3.48,9.58,0,11,1.26,5.5,6Z"/>
    </symbol>

    <svg id="chev-right" viewBox="0 0 7.41 13">
        <path d="M104.28,7.14l-5.59,5.59a.91.91,0,0,1-1.28-1.28l4.94-4.95L97.41,1.55a.89.89,0,0,1,0-1.28.89.89,0,0,1,1.28,0l5.59,5.59a.89.89,0,0,1,0,1.28Z" transform="translate(-97.14 0)"/>
    </svg>

    <symbol id="calendar" viewBox="0 0 27 27">
        <g id="Prices-Desktop-NEW"><g id="iconmonstr-calendar-4"><path id="Shape" d="M22.5,22.5H18V18h4.5ZM15.75,11.25h-4.5v4.5h4.5Zm6.75,0H18v4.5h4.5ZM9,18H4.5v4.5H9Zm6.75,0h-4.5v4.5h4.5ZM9,11.25H4.5v4.5H9Zm18-9V27H0V2.25H3.38V3.38a2.25,2.25,0,0,0,4.5,0V2.25H19.13V3.38a2.25,2.25,0,0,0,4.5,0V2.25ZM24.75,9H2.25V24.75h22.5ZM22.5,1.13a1.13,1.13,0,0,0-2.25,0V3.38a1.13,1.13,0,0,0,2.25,0ZM6.75,3.38a1.13,1.13,0,0,1-2.25,0V1.13a1.13,1.13,0,0,1,2.25,0Z"/></g></g>
    </symbol>
	
    <symbol id="email-icon" viewBox="0 0 24 18">
        <path d="M12,12.71,0,3H24ZM6.57,10.89,0,5.56v12.5Zm10.85,0L24,18.06V5.56Zm-1.55,1.26L12,15.29,8.13,12.15,0,21H24Z" transform="translate(0 -3)"/>
    </symbol>

    <symbol id="phone-icon" viewBox="0 0 19.12 22.09">
        <g id="Layer_2" data-name="Layer 2"><g id="Layer_1-2" data-name="Layer 1-2"><path d="M19.12,20l-4.77-6s-1.75,1.34-1.83,1.39c-2,1.5-8.18-6.35-6.26-7.93L8.1,6,3.36,0,1.49,1.43C.05,2.58-.26,4.49.2,6.69,1.62,13.5,10.38,23.1,15.77,22a3.69,3.69,0,0,0,1.48-.64Z" transform="translate(0)"/></g></g>
    </symbol>

    <symbol id="facebook-icon" viewBox="0 0 24 24">
        <path d="M9 8h-3v4h3v12h5v-12h3.642l.358-4h-4v-1.667c0-.955.192-1.333 1.115-1.333h2.885v-5h-3.808c-3.596 0-5.192 1.583-5.192 4.615v3.385z"/>
    </symbol>
    <symbol id="linkedin-icon" viewBox="0 0 24 24">
        <path d="M4.98 3.5c0 1.381-1.11 2.5-2.48 2.5s-2.48-1.119-2.48-2.5c0-1.38 1.11-2.5 2.48-2.5s2.48 1.12 2.48 2.5zm.02 4.5h-5v16h5v-16zm7.982 0h-4.968v16h4.969v-8.399c0-4.67 6.029-5.052 6.029 0v8.399h4.988v-10.131c0-7.88-8.922-7.593-11.018-3.714v-2.155z"/>
    </symbol>
    <symbol id="pinterest-icon" viewBox="0 0 24 24">
        <path d="M12 0c-6.627 0-12 5.372-12 12 0 5.084 3.163 9.426 7.627 11.174-.105-.949-.2-2.405.042-3.441.218-.937 1.407-5.965 1.407-5.965s-.359-.719-.359-1.782c0-1.668.967-2.914 2.171-2.914 1.023 0 1.518.769 1.518 1.69 0 1.029-.655 2.568-.994 3.995-.283 1.194.599 2.169 1.777 2.169 2.133 0 3.772-2.249 3.772-5.495 0-2.873-2.064-4.882-5.012-4.882-3.414 0-5.418 2.561-5.418 5.207 0 1.031.397 2.138.893 2.738.098.119.112.224.083.345l-.333 1.36c-.053.22-.174.267-.402.161-1.499-.698-2.436-2.889-2.436-4.649 0-3.785 2.75-7.262 7.929-7.262 4.163 0 7.398 2.967 7.398 6.931 0 4.136-2.607 7.464-6.227 7.464-1.216 0-2.359-.631-2.75-1.378l-.748 2.853c-.271 1.043-1.002 2.35-1.492 3.146 1.124.347 2.317.535 3.554.535 6.627 0 12-5.373 12-12 0-6.628-5.373-12-12-12z" fill-rule="evenodd" clip-rule="evenodd"/>
    </symbol>
    <symbol id="instagram-icon" viewBox="0 0 24 24">
        <path d="M21.231 0h-18.462c-1.529 0-2.769 1.24-2.769 2.769v18.46c0 1.531 1.24 2.771 2.769 2.771h18.463c1.529 0 2.768-1.24 2.768-2.771v-18.46c0-1.529-1.239-2.769-2.769-2.769zm-9.231 7.385c2.549 0 4.616 2.065 4.616 4.615 0 2.549-2.067 4.616-4.616 4.616s-4.615-2.068-4.615-4.616c0-2.55 2.066-4.615 4.615-4.615zm9 12.693c0 .509-.413.922-.924.922h-16.152c-.511 0-.924-.413-.924-.922v-10.078h1.897c-.088.315-.153.64-.2.971-.05.337-.081.679-.081 1.029 0 4.079 3.306 7.385 7.384 7.385s7.384-3.306 7.384-7.385c0-.35-.031-.692-.081-1.028-.047-.331-.112-.656-.2-.971h1.897v10.077zm0-13.98c0 .509-.413.923-.924.923h-2.174c-.511 0-.923-.414-.923-.923v-2.175c0-.51.412-.923.923-.923h2.174c.511 0 .924.413.924.923v2.175z" fill-rule="evenodd" clip-rule="evenodd"/>
    </symbol>
    <symbol id="youtube-icon" viewBox="0 0 24 24">
        <path d="M4.652 0h1.44l.988 3.702.916-3.702h1.454l-1.665 5.505v3.757h-1.431v-3.757l-1.702-5.505zm6.594 2.373c-1.119 0-1.861.74-1.861 1.835v3.349c0 1.204.629 1.831 1.861 1.831 1.022 0 1.826-.683 1.826-1.831v-3.349c0-1.069-.797-1.835-1.826-1.835zm.531 5.127c0 .372-.19.646-.532.646-.351 0-.554-.287-.554-.646v-3.179c0-.374.172-.651.529-.651.39 0 .557.269.557.651v3.179zm4.729-5.07v5.186c-.155.194-.5.512-.747.512-.271 0-.338-.186-.338-.46v-5.238h-1.27v5.71c0 .675.206 1.22.887 1.22.384 0 .918-.2 1.468-.853v.754h1.27v-6.831h-1.27zm2.203 13.858c-.448 0-.541.315-.541.763v.659h1.069v-.66c.001-.44-.092-.762-.528-.762zm-4.703.04c-.084.043-.167.109-.25.198v4.055c.099.106.194.182.287.229.197.1.485.107.619-.067.07-.092.105-.241.105-.449v-3.359c0-.22-.043-.386-.129-.5-.147-.193-.42-.214-.632-.107zm4.827-5.195c-2.604-.177-11.066-.177-13.666 0-2.814.192-3.146 1.892-3.167 6.367.021 4.467.35 6.175 3.167 6.367 2.6.177 11.062.177 13.666 0 2.814-.192 3.146-1.893 3.167-6.367-.021-4.467-.35-6.175-3.167-6.367zm-12.324 10.686h-1.363v-7.54h-1.41v-1.28h4.182v1.28h-1.41v7.54zm4.846 0h-1.21v-.718c-.223.265-.455.467-.696.605-.652.374-1.547.365-1.547-.955v-5.438h1.209v4.988c0 .262.063.438.322.438.236 0 .564-.303.711-.487v-4.939h1.21v6.506zm4.657-1.348c0 .805-.301 1.431-1.106 1.431-.443 0-.812-.162-1.149-.583v.5h-1.221v-8.82h1.221v2.84c.273-.333.644-.608 1.076-.608.886 0 1.18.749 1.18 1.631v3.609zm4.471-1.752h-2.314v1.228c0 .488.042.91.528.91.511 0 .541-.344.541-.91v-.452h1.245v.489c0 1.253-.538 2.013-1.813 2.013-1.155 0-1.746-.842-1.746-2.013v-2.921c0-1.129.746-1.914 1.837-1.914 1.161 0 1.721.738 1.721 1.914v1.656z"/>
    </symbol>
    <symbol id="rss-icon" viewBox="0 0 24 24">
        <path d="M6.503 20.752c0 1.794-1.456 3.248-3.251 3.248-1.796 0-3.252-1.454-3.252-3.248 0-1.794 1.456-3.248 3.252-3.248 1.795.001 3.251 1.454 3.251 3.248zm-6.503-12.572v4.811c6.05.062 10.96 4.966 11.022 11.009h4.817c-.062-8.71-7.118-15.758-15.839-15.82zm0-3.368c10.58.046 19.152 8.594 19.183 19.188h4.817c-.03-13.231-10.755-23.954-24-24v4.812z"/>
    </symbol>
    <symbol id="twitter-icon" viewBox="0 0 24 24">
        <path d="M24 4.557c-.883.392-1.832.656-2.828.775 1.017-.609 1.798-1.574 2.165-2.724-.951.564-2.005.974-3.127 1.195-.897-.957-2.178-1.555-3.594-1.555-3.179 0-5.515 2.966-4.797 6.045-4.091-.205-7.719-2.165-10.148-5.144-1.29 2.213-.669 5.108 1.523 6.574-.806-.026-1.566-.247-2.229-.616-.054 2.281 1.581 4.415 3.949 4.89-.693.188-1.452.232-2.224.084.626 1.956 2.444 3.379 4.6 3.419-2.07 1.623-4.678 2.348-7.29 2.04 2.179 1.397 4.768 2.212 7.548 2.212 9.142 0 14.307-7.721 13.995-14.646.962-.695 1.797-1.562 2.457-2.549z"/>
    </symbol>
</svg>