<svg id="advertising-icon" xmlns="http://www.w3.org/2000/svg" viewBox="0 0 97.409 70.324">
  <g id="Group_839" data-name="Group 839" transform="translate(0)">
    <path id="Path_1575" data-name="Path 1575" class="cls-1" d="M220.091,162.018a1.554,1.554,0,0,0,.469.077,1.479,1.479,0,0,0,1.476-1.48v-11a12.6,12.6,0,0,0,0-24.408V114.2a1.474,1.474,0,0,0-1.944-1.4L183.613,125H168.4a1.479,1.479,0,0,0-1.476,1.478v9.442h-12.18a1.477,1.477,0,0,0-1.478,1.476v35.494a1.476,1.476,0,0,0,1.478,1.476h7.936v7.208a1.484,1.484,0,0,0,.775,1.3,1.512,1.512,0,0,0,.7.175,1.479,1.479,0,0,0,.81-.24l12.86-8.444h31.055a1.476,1.476,0,0,0,1.478-1.476V158.764Zm8.464-24.611a9.66,9.66,0,0,1-6.52,9.109V128.286A9.662,9.662,0,0,1,228.555,137.407Zm-9.471,21.162-33.757-11.291V127.539l33.757-11.291Zm-49.205-30.619h12.5v18.915h-12.5Zm37.53,43.459H177.387a1.5,1.5,0,0,0-.81.244l-10.942,7.183v-5.949a1.476,1.476,0,0,0-1.476-1.478h-7.938V138.871h10.7v9.471a1.477,1.477,0,0,0,1.476,1.476h15.211l23.8,7.957Z" transform="translate(-153.268 -112.723)"/>
  </g>
  <g id="Group_840" data-name="Group 840" transform="translate(89.604 10.639)">
    <path id="Path_1576" data-name="Path 1576" class="cls-1" d="M197.881,145.66a1.471,1.471,0,0,0,2.087-.071,20.185,20.185,0,0,0,0-27.158,1.476,1.476,0,1,0-2.156,2.018,17.2,17.2,0,0,1,0,23.125A1.476,1.476,0,0,0,197.881,145.66Z" transform="translate(-197.414 -117.964)"/>
  </g>
  <g id="Group_841" data-name="Group 841" transform="translate(82.727 16.086)">
    <path id="Path_1577" data-name="Path 1577" class="cls-1" d="M194.546,137.491a1.456,1.456,0,0,0,.954.353,1.476,1.476,0,0,0,1.124-.52,12.91,12.91,0,0,0,0-16.157,1.477,1.477,0,1,0-2.251,1.912,9.857,9.857,0,0,1,0,12.333A1.472,1.472,0,0,0,194.546,137.491Z" transform="translate(-194.025 -120.648)"/>
  </g>
  <g id="Group_842" data-name="Group 842" transform="translate(21.383 18.78)">
    <path id="Path_1578" data-name="Path 1578" class="cls-1" d="M165.281,121.975a1.477,1.477,0,0,0-1.478,1.478v8.854a1.477,1.477,0,1,0,2.953,0v-8.854A1.476,1.476,0,0,0,165.281,121.975Z" transform="translate(-163.803 -121.975)"/>
  </g>
</svg>
