<svg xmlns="http://www.w3.org/2000/svg" viewBox="0 0 255.043 255.043">
  <g id="ai-icon" opacity="0.09">
    <g id="Group_1172" data-name="Group 1172">
      <path id="Path_1731" data-name="Path 1731" d="M167.811,255.043a3.492,3.492,0,0,1-3.7-3.7V227.321h-19.59v24.026a3.7,3.7,0,0,1-7.393,0V227.321h-19.59v24.026a3.7,3.7,0,0,1-7.393,0V227.321H90.559v24.026a3.7,3.7,0,0,1-7.393,0V227.321H77.622a48.312,48.312,0,0,1-35.484-14.785,47.985,47.985,0,0,1-14.415-35.115v-5.914H3.7a3.7,3.7,0,1,1,0-7.393H27.722v-19.59H3.7a3.7,3.7,0,1,1,0-7.393H27.722v-19.59H3.7a3.7,3.7,0,1,1,0-7.393H27.722V90.559H3.7a3.7,3.7,0,1,1,0-7.393H27.722V77.622A49.427,49.427,0,0,1,42.138,42.138c9.61-9.61,21.808-14.415,35.484-14.415h5.914V3.7a3.7,3.7,0,0,1,7.393,0V27.722h19.59V3.7a3.7,3.7,0,1,1,7.393,0V27.722H137.5V3.7a3.7,3.7,0,0,1,7.393,0V27.722h19.59V3.7a3.7,3.7,0,0,1,7.393,0V27.722h5.544a47.985,47.985,0,0,1,35.115,14.415,48.551,48.551,0,0,1,14.785,35.484v5.914h24.026a3.7,3.7,0,0,1,0,7.393H227.321v19.59h24.026a3.7,3.7,0,0,1,0,7.393H227.321V137.5h24.026a3.7,3.7,0,0,1,0,7.393H227.321v19.59h24.026a3.7,3.7,0,0,1,0,7.393H227.321v5.544c0,13.676-4.805,25.5-14.785,35.115-9.61,9.61-21.438,14.785-35.115,14.785h-5.914v24.026A3.492,3.492,0,0,1,167.811,255.043Zm0-35.115h9.61c11.828,0,21.808-4.066,29.94-12.567,8.5-8.5,12.567-18.112,12.567-29.94v-99.8c0-11.828-4.066-21.808-12.567-29.94-8.5-8.5-18.112-12.567-29.94-12.567h-99.8c-11.828,0-21.808,4.066-29.94,12.567-8.5,8.5-12.567,18.112-12.567,29.94v99.8c0,11.828,4.066,21.808,12.567,29.94,8.5,8.5,18.112,12.567,29.94,12.567Zm-25.135-22.178a18.148,18.148,0,0,1-13.307-5.544c-.739-.739-1.109-1.479-1.848-2.218a9.8,9.8,0,0,1-1.848,2.218,19.1,19.1,0,0,1-31.788-8.871c-1.109,0-2.587.37-4.066.37h0a29.027,29.027,0,0,1-29.2-29.2,22.73,22.73,0,0,1,.37-5.175,23.914,23.914,0,0,1-3.327-2.957,22.882,22.882,0,0,1-7.023-17c0-6.653,2.218-12.567,7.023-17,1.109-1.109,2.587-2.218,3.7-3.327a28.137,28.137,0,0,1-1.109-7.762,29.225,29.225,0,0,1,26.613-29.2,23.492,23.492,0,0,1,5.175-8.132,22.311,22.311,0,0,1,31.788,0c1.109,1.109,1.848,2.218,2.957,3.327a23.914,23.914,0,0,1,2.957-3.327A22.43,22.43,0,0,1,166.7,72.077c7.023.739,13.307,3.327,18.112,8.5a28.454,28.454,0,0,1,8.5,20.7,26.267,26.267,0,0,1-1.109,7.762,10.484,10.484,0,0,1,3.7,3.327,22.882,22.882,0,0,1,7.023,17c0,6.653-2.218,12.567-7.023,17-1.109,1.109-2.218,1.848-3.327,2.957a24.4,24.4,0,0,1,.37,5.175,29.027,29.027,0,0,1-29.2,29.2h0a11.4,11.4,0,0,1-3.7-.37,18.218,18.218,0,0,1-5.175,8.871A15.264,15.264,0,0,1,142.676,197.751Zm-11.458-25.135v6.653a11.369,11.369,0,0,0,11.089,11.089,11.467,11.467,0,0,0,8.132-3.327,10.638,10.638,0,0,0,3.327-7.762,3.362,3.362,0,0,1,1.479-2.957,3.545,3.545,0,0,1,3.327-.739,32.352,32.352,0,0,0,5.914.739h0a21.788,21.788,0,0,0,15.524-6.284,20.359,20.359,0,0,0,6.284-15.524,28.726,28.726,0,0,0-.739-5.914h0a21.4,21.4,0,0,0-5.544-9.241,19.9,19.9,0,0,0-14.416-6.284,3.7,3.7,0,0,1,0-7.393,28.816,28.816,0,0,1,19.221,8.5,27.34,27.34,0,0,1,5.544,7.762l.37-.37a16.96,16.96,0,0,0,0-23.656,14.065,14.065,0,0,0-4.805-3.327,3.668,3.668,0,0,1-1.848-4.805,19.891,19.891,0,0,0,1.479-8.132,21.788,21.788,0,0,0-6.284-15.524,20.359,20.359,0,0,0-15.524-6.284,4.006,4.006,0,0,1-4.066-2.957,16.359,16.359,0,0,0-4.066-7.393,14.787,14.787,0,0,0-25.135,10.35v8.871a20.1,20.1,0,0,0,6.284,14.785,20.516,20.516,0,0,0,13.307,6.284,3.715,3.715,0,0,1-.739,7.393c-7.023-.739-12.937-3.327-17.742-8.5l-1.109-1.109v57.662h8.871a3.7,3.7,0,0,1,0,7.393ZM97.582,175.2a5.254,5.254,0,0,1,2.218.739,4.563,4.563,0,0,1,1.479,2.957,11.359,11.359,0,0,0,11.458,11.458,11.369,11.369,0,0,0,11.089-11.089v-6.653h-9.241a3.7,3.7,0,0,1,0-7.393h9.241V107.562a5.1,5.1,0,0,0-1.109,1.479,29.73,29.73,0,0,1-17.742,8.5c-1.848.37-3.7-1.479-4.066-3.327a4.021,4.021,0,0,1,3.327-4.066,20.516,20.516,0,0,0,13.307-6.284,20.935,20.935,0,0,0,6.284-15.155V79.1a14.638,14.638,0,0,0-25.135-10.35,14.674,14.674,0,0,0-4.066,7.393,3.6,3.6,0,0,1-3.7,2.957,22.663,22.663,0,0,0-15.894,6.284,20.359,20.359,0,0,0-6.284,15.524,18.8,18.8,0,0,0,1.479,8.132,3.8,3.8,0,0,1-1.848,4.805,18.792,18.792,0,0,0-4.805,3.327,16.96,16.96,0,0,0,0,23.656l.37.37a29.6,29.6,0,0,1,5.544-7.762,28.816,28.816,0,0,1,19.221-8.5,3.7,3.7,0,0,1,0,7.393A21.461,21.461,0,0,0,74.3,138.61a18.839,18.839,0,0,0-5.544,9.241h0a32.351,32.351,0,0,0-.739,5.914A21.788,21.788,0,0,0,74.3,169.289a20.359,20.359,0,0,0,15.524,6.284h0a28.727,28.727,0,0,0,5.914-.739A4.947,4.947,0,0,0,97.582,175.2Zm72.447-11.458h0c-7.023-.739-13.307-3.327-18.112-8.5a28.227,28.227,0,0,1-8.5-20.33,3.492,3.492,0,0,1,3.7-3.7,3.7,3.7,0,0,1,3.7,3.7,20.935,20.935,0,0,0,6.284,15.155,20.516,20.516,0,0,0,13.307,6.284,3.339,3.339,0,0,1,3.327,4.066A3.931,3.931,0,0,1,170.029,163.745Zm-85.014,0a3.931,3.931,0,0,1-3.7-3.327,4.021,4.021,0,0,1,3.327-4.066,20.516,20.516,0,0,0,13.307-6.284,20.935,20.935,0,0,0,6.284-15.155,3.975,3.975,0,0,1,3.7-3.7h0a3.7,3.7,0,0,1,3.7,3.7,28.227,28.227,0,0,1-8.5,20.33c-4.805,5.175-10.719,7.762-18.112,8.5Zm-2.957-48.421h0a3.7,3.7,0,0,1-3.7-3.7,28.227,28.227,0,0,1,8.5-20.33A30.765,30.765,0,0,1,104.6,82.8c2.218-.37,3.7,1.479,4.066,3.327a4.331,4.331,0,0,1-3.327,4.066,18.8,18.8,0,0,0-12.937,6.284,20.935,20.935,0,0,0-6.284,15.155A4.344,4.344,0,0,1,82.057,115.324Zm90.928,0a3.7,3.7,0,0,1-3.7-3.7,20.935,20.935,0,0,0-6.284-15.155A20.516,20.516,0,0,0,149.7,90.189a3.339,3.339,0,0,1-3.327-4.066,3.529,3.529,0,0,1,4.066-3.327c7.023.739,12.937,3.327,17.742,8.5a28.227,28.227,0,0,1,8.5,20.33,3.975,3.975,0,0,1-3.7,3.7Z" fill="#087482"/>
    </g>
  </g>
</svg>
