<svg xmlns="http://www.w3.org/2000/svg" width="249.706" height="261.411" viewBox="0 0 249.706 261.411">
  <g id="doc-search-icon" opacity="0.09">
    <g id="Group_1174" data-name="Group 1174" transform="translate(53.063 64.768)">
      <path id="Path_1732" data-name="Path 1732" d="M153.279,213.244H17.5a3.686,3.686,0,0,1-3.9-3.9V20.5a3.686,3.686,0,0,1,3.9-3.9H123.627a3.542,3.542,0,0,1,2.731,1.17l29.653,29.653a3.542,3.542,0,0,1,1.17,2.731V209.342A3.91,3.91,0,0,1,153.279,213.244ZM21.4,205.44H149.378V51.715L122.066,24.4H21.4Z" transform="translate(-13.6 -16.6)" fill="#087482"/>
    </g>
    <g id="Group_1175" data-name="Group 1175" transform="translate(153.335 76.863)">
      <path id="Path_1733" data-name="Path 1733" d="M66.612,50.913H43.2a3.686,3.686,0,0,1-3.9-3.9V23.6a3.686,3.686,0,0,1,3.9-3.9,3.686,3.686,0,0,1,3.9,3.9V43.11H66.612a3.9,3.9,0,0,1,0,7.8Z" transform="translate(-39.3 -19.7)" fill="#087482"/>
    </g>
    <g id="Group_1176" data-name="Group 1176" transform="translate(0 29.653)">
      <path id="Path_1734" data-name="Path 1734" d="M45.259,203.853H3.9a3.686,3.686,0,0,1-3.9-3.9V11.5A3.686,3.686,0,0,1,3.9,7.6h94.42a3.686,3.686,0,0,1,3.9,3.9,3.686,3.686,0,0,1-3.9,3.9H7.8V196.44H45.259a3.686,3.686,0,0,1,3.9,3.9C49.161,202.683,47.21,203.853,45.259,203.853Z" transform="translate(0 -7.6)" fill="#087482"/>
    </g>
    <g id="Group_1177" data-name="Group 1177" transform="translate(106.125)">
      <path id="Path_1735" data-name="Path 1735" d="M166.879,196.644H125.522a3.9,3.9,0,0,1,0-7.8h37.456V35.115L135.666,7.8H35V56.964a3.686,3.686,0,0,1-3.9,3.9,3.686,3.686,0,0,1-3.9-3.9V3.9A3.686,3.686,0,0,1,31.1,0H137.227a3.542,3.542,0,0,1,2.731,1.17l29.653,29.653a3.038,3.038,0,0,1,1.171,2.731V192.742A4.2,4.2,0,0,1,166.879,196.644Z" transform="translate(-27.2)" fill="#087482"/>
    </g>
    <g id="Group_1178" data-name="Group 1178" transform="translate(206.788 11.705)">
      <path id="Path_1736" data-name="Path 1736" d="M80.312,34.6H56.9A3.686,3.686,0,0,1,53,30.7V6.9a3.9,3.9,0,0,1,7.8,0V26.41H80.312a3.686,3.686,0,0,1,3.9,3.9A4.273,4.273,0,0,1,80.312,34.6Z" transform="translate(-53 -3)" fill="#087482"/>
    </g>
    <g id="Group_1179" data-name="Group 1179" transform="translate(76.863 123.683)">
      <path id="Path_1737" data-name="Path 1737" d="M76.664,39.5H23.6a3.686,3.686,0,0,1-3.9-3.9,3.686,3.686,0,0,1,3.9-3.9H76.664a3.686,3.686,0,0,1,3.9,3.9A3.91,3.91,0,0,1,76.664,39.5Z" transform="translate(-19.7 -31.7)" fill="#087482"/>
    </g>
    <g id="Group_1180" data-name="Group 1180" transform="translate(76.863 100.273)">
      <path id="Path_1738" data-name="Path 1738" d="M76.664,33.5H23.6a3.686,3.686,0,0,1-3.9-3.9,3.686,3.686,0,0,1,3.9-3.9H76.664a3.686,3.686,0,0,1,3.9,3.9A3.91,3.91,0,0,1,76.664,33.5Z" transform="translate(-19.7 -25.7)" fill="#087482"/>
    </g>
    <g id="Group_1181" data-name="Group 1181" transform="translate(82.715 147.483)">
      <path id="Path_1739" data-name="Path 1739" d="M57.485,110.371A36.285,36.285,0,1,1,93.771,74.085,36.468,36.468,0,0,1,57.485,110.371Zm0-64.768A28.482,28.482,0,1,0,85.968,74.085,28.642,28.642,0,0,0,57.485,45.6Z" transform="translate(-21.2 -37.8)" fill="#087482"/>
    </g>
    <g id="Group_1182" data-name="Group 1182" transform="translate(141.24 200.545)">
      <path id="Path_1740" data-name="Path 1740" d="M69.754,88.856a3.542,3.542,0,0,1-2.731-1.171L37.371,58.033a3.862,3.862,0,0,1,5.462-5.462L72.485,82.223a3.772,3.772,0,0,1,0,5.462A3.542,3.542,0,0,1,69.754,88.856Z" transform="translate(-36.2 -51.4)" fill="#087482"/>
    </g>
  </g>
</svg>
