<svg xmlns="http://www.w3.org/2000/svg" viewBox="0 0 252.011 295.234">
  <g id="personalization-icon" transform="translate(0 0.1)" opacity="0.09">
    <g id="Group_1151" data-name="Group 1151" transform="translate(17.341 218.417)">
      <path id="Path_1710" data-name="Path 1710" d="M124.3,309.172h-.282A123.17,123.17,0,0,1,18.967,239.92a5.19,5.19,0,1,1,9.3-4.6,112.652,112.652,0,0,0,96.219,63.425,5.106,5.106,0,0,1,4.886,5.45A5.033,5.033,0,0,1,124.3,309.172Z" transform="translate(-18.455 -232.455)" fill="#087482"/>
    </g>
    <g id="Group_1152" data-name="Group 1152" transform="translate(138.27 272.386)">
      <path id="Path_1711" data-name="Path 1711" d="M152.365,311.887a5.246,5.246,0,0,1-5.168-4.51,5.111,5.111,0,0,1,4.51-5.732,111.332,111.332,0,0,0,36.646-11.182,5.169,5.169,0,0,1,4.7,9.208,122.153,122.153,0,0,1-40.029,12.215Z" transform="translate(-147.153 -289.891)" fill="#087482"/>
    </g>
    <g id="Group_1153" data-name="Group 1153" transform="translate(193.683 197.515)">
      <path id="Path_1712" data-name="Path 1712" d="M211.27,284.9a5.252,5.252,0,0,1-4.134-2.067,5.146,5.146,0,0,1,1.128-7.235,113.417,113.417,0,0,0,42-61.546,5.151,5.151,0,0,1,9.96,2.631,123.987,123.987,0,0,1-45.854,67.184A4.754,4.754,0,0,1,211.27,284.9Z" transform="translate(-206.125 -210.21)" fill="#087482"/>
    </g>
    <g id="Group_1154" data-name="Group 1154" transform="translate(234.9 80.323)">
      <path id="Path_1713" data-name="Path 1713" d="M261.933,182.47a5.214,5.214,0,0,1-5.168-5.168V130.32a113.1,113.1,0,0,0-6.483-37.961,5.142,5.142,0,1,1,9.678-3.477A123.544,123.544,0,0,1,267.1,130.32V177.3A5.214,5.214,0,0,1,261.933,182.47Z" transform="translate(-249.99 -85.49)" fill="#087482"/>
    </g>
    <g id="Group_1155" data-name="Group 1155" transform="translate(198.227 28.522)">
      <path id="Path_1714" data-name="Path 1714" d="M240.878,68.359a5.117,5.117,0,0,1-4.322-2.349,113.781,113.781,0,0,0-23.679-26.5,5.144,5.144,0,0,1,6.483-7.987A122.328,122.328,0,0,1,245.2,60.466a5.161,5.161,0,0,1-1.6,7.141A4.791,4.791,0,0,1,240.878,68.359Z" transform="translate(-210.961 -30.361)" fill="#087482"/>
    </g>
    <g id="Group_1156" data-name="Group 1156" transform="translate(27.837 1.967)">
      <path id="Path_1715" data-name="Path 1715" d="M34.77,61.579A5.105,5.105,0,0,1,30.635,53.4,123.242,123.242,0,0,1,130.613,2.1a5.214,5.214,0,0,1,5.168,5.168,5.214,5.214,0,0,1-5.168,5.168A113.171,113.171,0,0,0,39,59.418,5.254,5.254,0,0,1,34.77,61.579Z" transform="translate(-29.625 -2.1)" fill="#087482"/>
    </g>
    <g id="Group_1157" data-name="Group 1157" transform="translate(5.638 83.718)">
      <path id="Path_1716" data-name="Path 1716" d="M11.168,182.688A5.214,5.214,0,0,1,6,177.52V130.538c0-11.745,3.195-27.156,6.108-37.679a5.176,5.176,0,1,1,9.96,2.819c-2.819,9.866-5.732,24.149-5.732,34.861V177.52A5.214,5.214,0,0,1,11.168,182.688Z" transform="translate(-6 -89.102)" fill="#087482"/>
    </g>
    <g id="Group_1158" data-name="Group 1158" transform="translate(89.018 235.911)">
      <path id="Path_1717" data-name="Path 1717" d="M134.543,274.307a89.564,89.564,0,0,1-36.74-7.8,5.195,5.195,0,1,1,4.228-9.49,78.969,78.969,0,0,0,32.511,6.953,79.865,79.865,0,0,0,42.284-12.121,5.174,5.174,0,1,1,5.544,8.739A90.665,90.665,0,0,1,134.543,274.307Z" transform="translate(-94.737 -251.072)" fill="#087482"/>
    </g>
    <g id="Group_1159" data-name="Group 1159" transform="translate(194.574 151.088)">
      <path id="Path_1718" data-name="Path 1718" d="M212.266,230.427a5.2,5.2,0,0,1-2.819-.846,5.075,5.075,0,0,1-1.5-7.141,81.2,81.2,0,0,0,12.967-43.505V165.968a5.168,5.168,0,0,1,10.336,0v12.967a91.752,91.752,0,0,1-14.564,49.049A5.388,5.388,0,0,1,212.266,230.427Z" transform="translate(-207.073 -160.8)" fill="#087482"/>
    </g>
    <g id="Group_1160" data-name="Group 1160" transform="translate(84.538 38.049)">
      <path id="Path_1719" data-name="Path 1719" d="M218.916,135.5a5.214,5.214,0,0,1-5.168-5.168,79.7,79.7,0,0,0-79.4-79.587h-.094a79.256,79.256,0,0,0-36.74,9.021,5.149,5.149,0,1,1-4.792-9.114A89.54,89.54,0,0,1,134.255,40.5h.094a90.009,90.009,0,0,1,89.735,89.923A5.134,5.134,0,0,1,218.916,135.5Z" transform="translate(-89.969 -40.5)" fill="#087482"/>
    </g>
    <g id="Group_1161" data-name="Group 1161" transform="translate(38.901 65.691)">
      <path id="Path_1720" data-name="Path 1720" d="M81.147,246.929a4.928,4.928,0,0,1-3.1-1.034A90.387,90.387,0,0,1,41.4,173.449V132.1A89.505,89.505,0,0,1,64.891,71.592,5.189,5.189,0,0,1,72.6,78.546,79.555,79.555,0,0,0,51.83,132.1v41.344a79.885,79.885,0,0,0,32.417,64.083,5.218,5.218,0,0,1,1.128,7.235A5.387,5.387,0,0,1,81.147,246.929Z" transform="translate(-41.4 -69.917)" fill="#087482"/>
    </g>
    <g id="Group_1162" data-name="Group 1162" transform="translate(163.265 92.88)">
      <path id="Path_1721" data-name="Path 1721" d="M183.475,205.452a5.315,5.315,0,0,1-2.631-.752,5.1,5.1,0,0,1-1.785-7.047,45.748,45.748,0,0,0,6.577-23.773V136.858a46.532,46.532,0,0,0-10.712-29.6,5.137,5.137,0,1,1,7.893-6.577,56.777,56.777,0,0,1,13.155,36.27v37.022a57.176,57.176,0,0,1-7.987,29.035A5.549,5.549,0,0,1,183.475,205.452Z" transform="translate(-173.753 -98.853)" fill="#087482"/>
    </g>
    <g id="Group_1163" data-name="Group 1163" transform="translate(75.151 74.319)">
      <path id="Path_1722" data-name="Path 1722" d="M85.167,123.451a6.385,6.385,0,0,1-1.785-.282,5.124,5.124,0,0,1-3.1-6.577A56.906,56.906,0,0,1,133.558,79.1a55.553,55.553,0,0,1,26.592,6.671,5.156,5.156,0,0,1,2.161,6.953,5.24,5.24,0,0,1-6.953,2.161,46.339,46.339,0,0,0-65.4,25.182A4.967,4.967,0,0,1,85.167,123.451Z" transform="translate(-79.979 -79.1)" fill="#087482"/>
    </g>
    <g id="Group_1164" data-name="Group 1164" transform="translate(72.421 167.319)">
      <path id="Path_1723" data-name="Path 1723" d="M133.477,235.322A56.559,56.559,0,0,1,77.1,183.736a5.189,5.189,0,1,1,10.336-.94,46.365,46.365,0,0,0,74.889,32.23,5.151,5.151,0,1,1,6.39,8.081A56.519,56.519,0,0,1,133.477,235.322Z" transform="translate(-77.074 -178.074)" fill="#087482"/>
    </g>
    <g id="Group_1165" data-name="Group 1165" transform="translate(107.025 118.643)">
      <path id="Path_1724" data-name="Path 1724" d="M119.068,176.475a5.214,5.214,0,0,1-5.168-5.168V142.742a21.7,21.7,0,0,1,5.826-14.846,5.186,5.186,0,1,1,7.611,7.047,11.343,11.343,0,0,0-3.1,7.8v28.565A5.153,5.153,0,0,1,119.068,176.475Z" transform="translate(-113.9 -126.271)" fill="#087482"/>
    </g>
    <g id="Group_1166" data-name="Group 1166" transform="translate(111.424 151.933)">
      <path id="Path_1725" data-name="Path 1725" d="M135.982,195.151a21.7,21.7,0,0,1-16.068-7.141,5.189,5.189,0,0,1,7.705-6.953,11.6,11.6,0,0,0,8.457,3.759,11.349,11.349,0,0,0,11.37-11.37v-6.577a5.168,5.168,0,0,1,10.336,0v6.577A21.856,21.856,0,0,1,135.982,195.151Z" transform="translate(-118.582 -161.7)" fill="#087482"/>
    </g>
    <g id="Group_1167" data-name="Group 1167" transform="translate(117.665 113.408)">
      <path id="Path_1726" data-name="Path 1726" d="M152.921,161.48a5.214,5.214,0,0,1-5.168-5.168V142.406a11.349,11.349,0,0,0-11.37-11.37,12.377,12.377,0,0,0-4.134.752,5.147,5.147,0,0,1-3.759-9.584,22.638,22.638,0,0,1,7.893-1.5,21.715,21.715,0,0,1,21.706,21.706v13.907A5.214,5.214,0,0,1,152.921,161.48Z" transform="translate(-125.224 -120.7)" fill="#087482"/>
    </g>
    <g id="Group_1168" data-name="Group 1168" transform="translate(164.718 -0.1)">
      <path id="Path_1727" data-name="Path 1727" d="M198.791,46.882a23.491,23.491,0,1,1,23.491-23.491A23.5,23.5,0,0,1,198.791,46.882Zm0-36.552a13.155,13.155,0,1,0,13.155,13.155A13.194,13.194,0,0,0,198.791,10.33Z" transform="translate(-175.3 0.1)" fill="#087482"/>
    </g>
    <g id="Group_1169" data-name="Group 1169" transform="translate(53.841 130.604)">
      <path id="Path_1728" data-name="Path 1728" d="M80.791,185.982a23.491,23.491,0,1,1,23.491-23.491A23.5,23.5,0,0,1,80.791,185.982Zm0-36.552a13.155,13.155,0,1,0,13.155,13.155A13.194,13.194,0,0,0,80.791,149.43Z" transform="translate(-57.3 -139)" fill="#087482"/>
    </g>
    <g id="Group_1170" data-name="Group 1170" transform="translate(164.718 206.15)">
      <path id="Path_1729" data-name="Path 1729" d="M198.791,266.382a23.491,23.491,0,1,1,23.491-23.491A23.5,23.5,0,0,1,198.791,266.382Zm0-36.552a13.155,13.155,0,1,0,13.155,13.155A13.194,13.194,0,0,0,198.791,229.83Z" transform="translate(-175.3 -219.4)" fill="#087482"/>
    </g>
    <g id="Group_1171" data-name="Group 1171" transform="translate(0 48.385)">
      <path id="Path_1730" data-name="Path 1730" d="M23.491,98.482A23.491,23.491,0,1,1,46.982,74.991,23.5,23.5,0,0,1,23.491,98.482Zm0-36.646A13.155,13.155,0,1,0,36.646,74.991,13.194,13.194,0,0,0,23.491,61.836Z" transform="translate(0 -51.5)" fill="#087482"/>
    </g>
  </g>
</svg>
